<?xml version="1.0" encoding="utf-8"?>
<!-- Generator: Adobe Illustrator 19.1.0, SVG Export Plug-In . SVG Version: 6.00 Build 0)  -->
<svg xmlns="http://www.w3.org/2000/svg" xmlns:xlink="http://www.w3.org/1999/xlink" version="1.1" id="Layer_1" x="0px" y="0px" viewBox="0 0 64 64" enable-background="new 0 0 64 64" xml:space="preserve" width="512px" height="512px">
<g id="Drawing">
	<path d="M58.5647545,0.61695c-0.1547012-0.3736-0.5195007-0.6172-0.9238014-0.6172H3.6600552c-0.5523002,0-1,0.4477-1,1v53.9809036   c0,0.4042969,0.2435999,0.7695999,0.6171112,0.9238968c0.1240888,0.0517006,0.2538886,0.0761032,0.3828888,0.0761032   c0.2601998,0,0.5155997-0.1015015,0.7069998-0.2929001L58.3479538,1.70675   C58.6341667,1.42065,58.7195549,0.99095,58.5647545,0.61695z M4.6600552,52.5666504V35.7380486h3.3978996   c0.5522118,0,1-0.4477997,1-1c0-0.5522995-0.4477882-1-1-1H4.6600552v-4.7475986h3.3978996c0.5522118,0,1-0.4477005,1-1   c0-0.5522003-0.4477882-1-1-1H4.6600552v-4.7476006h3.3978996c0.5522118,0,1-0.4476986,1-1c0-0.5521984-0.4477882-1-1-1H4.6600552   v-4.7479992h3.3978996c0.5522118,0,1-0.4477997,1-1s-0.4477882-1-1-1H4.6600552V8.7472496h3.3978996   c0.5522118,0,1-0.4476995,1-0.9999995c0-0.5522003-0.4477882-1-1-1H4.6600552V1.99975h50.5667953L4.6600552,52.5666504z" fill="#87342e"/>
	<path d="M14.0730543,32.9626503c0.1241121,0.0512009,0.2539005,0.0760994,0.3829002,0.0760994   c0.2602119,0,0.5156002-0.1015015,0.7069998-0.2929001l21.5927982-21.5923004   c0.2861023-0.2861004,0.3715019-0.7158003,0.2168007-1.0897999c-0.1548004-0.3736-0.5195999-0.6171999-0.9239006-0.6171999   H14.4559546c-0.5522995,0-1,0.4476995-1,1v21.5921993C13.4559546,32.4430504,13.6995544,32.8078499,14.0730543,32.9626503z    M15.4559546,11.4465504H33.634655L15.4559546,29.6247501V11.4465504z" fill="#87342e"/>
	<path d="M53.5262527,23.4040508c0.3246994,0.1542988,0.6674004,0.2269993,1.0053024,0.2269993   c0.8793983,0,1.7236977-0.4946003,2.1254997-1.3393002c0.5571976-1.1699009,0.0585976-2.5746994-1.1113014-3.1313992   c-1.169899-0.5561008-2.5741997-0.0586014-3.1317978,1.1117992C51.8577538,21.4430504,52.3567543,22.8478508,53.5262527,23.4040508   z M54.2200546,21.1310501c0.060112-0.1254997,0.1856003-0.1987,0.3163986-0.1987   c0.0503006,0,0.1016006,0.0107002,0.1499023,0.033699c0.1738091,0.0830002,0.2480965,0.2920017,0.1650963,0.466301   c-0.0839996,0.1732998-0.2929993,0.2479992-0.4663963,0.1655006   C54.2112541,21.5148506,54.1375542,21.3053493,54.2200546,21.1310501z" fill="#87342e"/>
	<path d="M60.3162537,39.4860497c-1.6506004,0.039299-3.2117004-0.0271988-4.7089005-0.1830978l1.8119011-12.340601   c1.2574005-0.6355,2.278801-1.6386013,2.8936005-2.9304008c0.7343979-1.5424995,0.8237-3.2787991,0.2514-4.8901005   c-0.4709015-1.3260994-1.3588028-2.4155998-2.5125008-3.1759996c0.1161003-0.0917997,0.218998-0.2032003,0.2869987-0.3459997   l2.8999023-6.0932999c0.2372971-0.4984999,0.0253983-1.0952005-0.4732018-1.3325005   c-0.4985008-0.2367997-1.0946999-0.0258999-1.3325005,0.4731998l-2.8998985,6.0932007   c-0.064888,0.1364994-0.0900002,0.2795992-0.0908012,0.4214001c-2.9904976-0.9364004-6.3003998,0.4418993-7.6840858,3.3505993   c-0.6328125,1.3304005-0.7584152,2.7707996-0.465313,4.1093998l-8.4067993,9.1550007   c-1.0666008-1.0613995-2.1084023-2.2273998-3.1288872-3.5289993c-0.3408127-0.4346008-0.9697151-0.5098-1.4043121-0.1700001   c-0.4345016,0.3408985-0.5106888,0.969799-0.1699028,1.4042988c1.0911026,1.3915997,2.2041016,2.6400013,3.3442154,3.7745991   L23.5740547,49.5607491c-0.3740005,0.4071999-0.3467007,1.0401001,0.060112,1.4131012   c0.1918869,0.1767998,0.4340878,0.2636986,0.675787,0.2636986c0.2705002,0,0.5400009-0.1093979,0.7368011-0.3232994   l14.9374981-16.267498c3.9233017,3.4594002,8.2392006,5.5200996,13.3493004,6.3764992l-3.2052994,21.831501   c-0.0806007,0.5467987,0.2974014,1.0546989,0.8437996,1.134697c0.0493011,0.0078011,0.0985985,0.0108032,0.1469002,0.0108032   c0.4878006,0,0.9151001-0.3574028,0.9878006-0.8545036l3.2081985-21.8506966   c1.2742996,0.1326981,2.5936012,0.2031975,3.9710007,0.2031975c0.3554993,0,0.7154007-0.0043983,1.0782127-0.0131989   c0.5516891-0.0126991,0.9886856-0.471199,0.9754868-1.0233994C61.3265533,39.9089508,60.8470535,39.4343491,60.3162537,39.4860497z    M50.5638542,19.3918495c0.7528992-1.5816002,2.3334999-2.5077991,3.9790001-2.5077991   c0.6323128,0,1.2748985,0.1371994,1.8828011,0.426199c1.0599976,0.5049,1.8607979,1.3931007,2.2538986,2.5004997   c0.3935013,1.1079006,0.3320007,2.3013-0.1723862,3.3613014c-0.5049133,1.0600986-1.3926125,1.860899-2.500515,2.2539997   c-1.1068993,0.3950005-2.3006973,0.3334999-3.3612976-0.1723995   C50.4559555,24.2116508,49.5223541,21.5817509,50.5638542,19.3918495z M41.3461647,33.1635513l7.782589-8.4756012   c0.6236992,0.9939003,1.5217018,1.8311005,2.6571999,2.3713989c0.8716011,0.4150009,1.8052139,0.6240005,2.7432137,0.6240005   c0.2577858,0,0.5153847-0.0347004,0.7727852-0.0664005l-1.6760979,11.4167004   C48.9389534,38.2267494,44.9638557,36.326149,41.3461647,33.1635513z" fill="#87342e"/>
</g>
<g>
</g>
<g>
</g>
<g>
</g>
<g>
</g>
<g>
</g>
<g>
</g>
<g>
</g>
<g>
</g>
<g>
</g>
<g>
</g>
<g>
</g>
<g>
</g>
<g>
</g>
<g>
</g>
<g>
</g>
</svg>
