<?xml version="1.0" encoding="iso-8859-1"?>
<!-- Generator: Adobe Illustrator 19.0.0, SVG Export Plug-In . SVG Version: 6.00 Build 0)  -->
<svg xmlns="http://www.w3.org/2000/svg" xmlns:xlink="http://www.w3.org/1999/xlink" version="1.1" id="Layer_1" x="0px" y="0px" viewBox="0 0 512.873 512.873" style="enable-background:new 0 0 512.873 512.873;" xml:space="preserve" width="512px" height="512px">
<g>
	<g>
		<path d="M265.745,4.364c-4.655-5.818-12.8-5.818-17.455,0c-6.982,8.145-154.764,185.018-154.764,285.091    c0,95.418,67.491,140.8,131.491,151.273C236.655,443.055,244.8,452.364,244.8,464v37.236c0,6.982,4.655,11.636,11.636,11.636    s11.636-4.655,11.636-11.636V464c0-23.273-16.291-41.891-39.564-46.545c-25.6-4.655-111.709-26.764-111.709-128    c0-79.127,107.055-218.764,139.636-258.327c32.582,39.564,139.636,179.2,139.636,258.327c0,86.109-52.364,116.364-95.418,126.836    c-5.818,1.164-10.473,8.145-9.309,13.964c1.164,5.818,8.145,10.473,13.964,9.309c73.309-16.291,114.036-69.818,114.036-148.945    C419.345,189.382,271.564,12.509,265.745,4.364z" fill="#FFFFFF"/>
	</g>
</g>
<g>
	<g>
		<path d="M370.473,273.164c-3.491-4.655-11.636-5.818-16.291-2.327l-86.109,66.327v-62.836l76.8-54.691    c4.655-3.491,6.982-10.473,2.327-16.291c-3.491-4.655-10.473-6.982-16.291-2.327l-62.836,44.218v-53.527l41.891-31.418    c4.655-3.491,5.818-11.636,2.327-16.291s-11.636-5.818-16.291-2.327l-27.927,22.109v-46.545c0-6.982-4.655-11.636-11.636-11.636    s-11.636,4.655-11.636,11.636v46.545l-27.927-20.945c-4.655-3.491-12.8-2.327-16.291,2.327s-2.327,12.8,2.327,16.291    l41.891,31.418v52.364l-62.836-45.382c-4.655-3.491-12.8-2.327-16.291,2.327s-2.327,12.8,2.327,16.291l76.8,54.691V336    l-86.109-66.327c-4.655-3.491-12.8-3.491-16.291,2.327c-3.491,4.655-3.491,12.8,2.327,16.291L244.8,366.255v30.255    c0,5.818,4.654,11.636,11.636,11.636s11.636-4.655,11.636-11.636v-29.091l100.073-77.964    C372.8,285.964,373.964,277.818,370.473,273.164z" fill="#FFFFFF"/>
	</g>
</g>
<g>
</g>
<g>
</g>
<g>
</g>
<g>
</g>
<g>
</g>
<g>
</g>
<g>
</g>
<g>
</g>
<g>
</g>
<g>
</g>
<g>
</g>
<g>
</g>
<g>
</g>
<g>
</g>
<g>
</g>
</svg>
