<?xml version="1.0" encoding="utf-8"?>
<!-- Generator: Adobe Illustrator 19.1.0, SVG Export Plug-In . SVG Version: 6.00 Build 0)  -->
<svg xmlns="http://www.w3.org/2000/svg" xmlns:xlink="http://www.w3.org/1999/xlink" version="1.1" id="Layer_1" x="0px" y="0px" viewBox="0 0 64 64" enable-background="new 0 0 64 64" xml:space="preserve" width="512px" height="512px">
<g id="Microscope">
	<path d="M53.2280693,43.3506279c-0.2695122-0.4814987-0.8799095-0.6533012-1.3613129-0.3814011L32.7075577,53.7471275   c-0.4814911,0.2705002-0.652401,0.8797989-0.3808975,1.3613014c0.1825981,0.3261986,0.5224991,0.5098,0.872097,0.5098   c0.1660004,0,0.3339996-0.0410995,0.4893112-0.1289024L52.8471565,44.712429   C53.3286591,44.4414291,53.4995575,43.8320274,53.2280693,43.3506279z" fill="#87342e"/>
	<path d="M46.1303596,53.1006279l4.3173981-2.3984985c0.4834023-0.2685013,0.6571999-0.8768997,0.3886986-1.3593025   c-0.2675972-0.4824982-0.8778992-0.6591988-1.3593903-0.3886986l-10.7773094,5.9873009   c-0.4833984,0.2686005-0.657299,0.8769989-0.3886909,1.3593979c0.1825943,0.3291016,0.5233917,0.5145988,0.875,0.5145988   c0.164093,0,0.3310928-0.0399971,0.4843941-0.1259995l4.7098999-2.6163979l3.9638977,7.9269981H18.7402592l7.6483994-26.6259995   l3.4731998,6.0161018c0.1328011,0.2294998,0.3514996,0.3974991,0.6074009,0.4659004   c0.0849991,0.0228996,0.1718998,0.0340996,0.2588081,0.0340996c0.1737919,0,0.3466911-0.0454025,0.5-0.1338005l1.2081928-0.6975021   l1.895298,3.2820015c0.1328011,0.2299995,0.3516006,0.3974991,0.607399,0.4658012   c0.0850029,0.0229988,0.1719017,0.0341988,0.2588005,0.0341988c0.1739006,0,0.3467026-0.0453987,0.5-0.1343002l5.1846008-2.9940987   c0.4785004-0.2759018,0.642601-0.8871994,0.3661995-1.3656998l-1.8944893-3.2818031l1.2080002-0.697197   c0.2294884-0.1328011,0.3973885-0.3511009,0.4657898-0.6074028c0.0684013-0.2563972,0.0332069-0.5292969-0.0996017-0.7588005   L26.5581589,10.1113281c-0.1328011-0.2295008-0.3516006-0.3973999-0.6074009-0.4658003   c-0.2558994-0.0698004-0.5292988-0.0332003-0.7587986,0.0995998l-2.2452011,1.2964001L16.8608589,0.5005278   c-0.1327915-0.2295-0.3516006-0.3975-0.6074009-0.4658c-0.2558994-0.0699-0.5292988-0.0332-0.7587986,0.0996l-3.1113005,1.7964   c-0.4785004,0.2763-0.6426001,0.8877001-0.3661995,1.3662l6.0859079,10.5412006l-2.2441082,1.2957001   c-0.4786005,0.2763996-0.6426001,0.8877001-0.3663006,1.3662004l5.9594994,10.3228989L10.6850672,62.7129288   c-0.0908079,0.3027-0.0332079,0.6307983,0.1552916,0.8838005c0.1895008,0.2538986,0.4863005,0.4033012,0.8027086,0.4033012   h38.3193932c0.3466988,0,0.6679001-0.1797028,0.8506088-0.4746017c0.1825905-0.2949028,0.1991882-0.6631012,0.0438881-0.972702   L46.1303596,53.1006279z M39.0161591,40.4810295l-3.4522018,1.9935989l-1.3955002-2.4159012l3.4532013-1.9934998   L39.0161591,40.4810295z M37.4885597,35.8323288l-0.0004921,0.0000992l-5.1858101,2.9938011l-0.0009995,0.0009003   l-1.2069988,0.6968002l-2.7483006-4.7605019l7.6208992-4.3549995l2.7290001,4.7268982L37.4885597,35.8323288z    M14.2495594,3.1631277l1.3788996-0.7963998l5.5859003,9.6747999l-0.9094009,0.5253l-0.4694996,0.2711L14.2495594,3.1631277z    M22.412859,13.6594276l0.6676998-0.3855l0,0l2.2451992-1.2964001l9.6410999,16.6989994l-7.6205997,4.3550014   l-9.6210995-16.6653004L22.412859,13.6594276z M22.8261585,29.2031269l2.1734009,3.7646999l-8.339901,29.0321999h-3.6727991   L22.8261585,29.2031269z" fill="#87342e"/>
</g>
<g>
</g>
<g>
</g>
<g>
</g>
<g>
</g>
<g>
</g>
<g>
</g>
<g>
</g>
<g>
</g>
<g>
</g>
<g>
</g>
<g>
</g>
<g>
</g>
<g>
</g>
<g>
</g>
<g>
</g>
</svg>
