<svg xmlns="http://www.w3.org/2000/svg" viewBox="0 0 511.994 511.994" width="512" height="512"><path d="M350.608 46.275c-14.422-14.633-32.155-25.992-52.701-33.742C275.876 4.221 250.407.002 222.22.002c-6.312 0-12.859.219-19.468.633-32.125 2.047-61.89 9.188-88.452 21.242-25.186 11.43-47.045 27.023-64.951 46.35-34.75 37.491-52.14 86.209-48.984 137.177 3.578 57.664 19.812 102.623 48.234 133.607 13.843 15.078 30.483 26.609 49.452 34.266 18.546 7.484 39.343 11.281 61.842 11.281 60.875.001 78.702-39.249 91.718-67.906 6.625-14.592 12.359-27.217 21.531-31.904 6.875-3.531 17.188-4.906 28.109-6.375 19.687-2.625 41.998-5.625 60.404-21.634 20.797-18.101 31.219-48.858 31.875-94.037.656-46.335-14.578-87.686-42.922-116.427zm21.578 116.115c-.547 38.773-8.578 64.366-24.547 78.257-13.562 11.812-31.687 14.241-49.217 16.594-12.797 1.711-24.875 3.328-35 8.516-15.812 8.086-23.296 24.586-31.234 42.068-6.218 13.688-12.656 27.844-23.343 38.297-11.952 11.671-27.499 17.093-48.952 17.093-82.78 0-131.873-56.5-138.231-159.131-2.797-45.085 12.593-88.186 43.327-121.356 15.968-17.234 35.531-31.172 58.124-41.421 24.203-10.984 51.452-17.5 80.998-19.375 6.156-.391 12.25-.594 18.109-.594 49.015 0 87.092 13.43 113.2 39.913 24.297 24.648 37.359 60.562 36.766 101.139zm130.061 45.819c-27.078 0-108.982 4.406-108.982 59.945 0 3.891.469 7.672 1.328 11.297L206.564 467.463c-10.187 10.188-10.187 26.719 0 36.906a26.05 26.05 0 0 0 18.438 7.623c6.687 0 13.359-2.547 18.453-7.639l188.309-188.295a49.812 49.812 0 0 0 10.546 1.141c27.078 0 49.047-21.951 49.047-49.045-.001-27.086 37.983-59.945 10.89-59.945zM228.361 489.275c-1.141 1.156-2.453 1.391-3.359 1.391a4.65 4.65 0 0 1-3.359-1.391c-1.844-1.844-1.844-4.875 0-6.719l178.575-178.574 4.422-4.422a49.466 49.466 0 0 0 6.765 6.67L228.361 489.275zm241.652-221.121c0 15.281-12.422 27.719-27.703 27.719-15.28 0-27.718-12.438-27.718-27.719 0-7.258 2.25-12.923 7.094-17.828 4.984-5.062 12.64-9.352 22.733-12.758 12.094-4.078 25.453-6.125 37-7.133-5.766 11.032-11.406 23.891-11.406 37.719z" fill="#e2c00c"/><path d="M298.673 149.336c-23.531 0-42.672 19.14-42.672 42.663 0 23.53 19.141 42.671 42.672 42.671 23.515 0 42.654-19.141 42.654-42.671 0-23.523-19.14-42.663-42.654-42.663zm0 63.998c-11.766 0-21.344-9.57-21.344-21.335 0-11.758 9.578-21.328 21.344-21.328 11.749 0 21.327 9.57 21.327 21.328 0 11.765-9.578 21.335-21.327 21.335zM213.33 42.674c-17.641 0-32 14.351-32 31.999 0 17.641 14.359 31.999 32 31.999s32-14.359 32-31.999c0-17.648-14.359-31.999-32-31.999zm0 42.663c-5.875 0-10.656-4.781-10.656-10.664s4.781-10.664 10.656-10.664c5.891 0 10.672 4.781 10.672 10.664s-4.781 10.664-10.672 10.664zm-85.327-10.664c-17.64 0-31.999 14.352-31.999 31.999 0 17.641 14.359 32 31.999 32 17.641 0 32-14.359 32-32 0-17.648-14.359-31.999-32-31.999zm0 42.663c-5.89 0-10.671-4.781-10.671-10.664 0-5.882 4.781-10.671 10.671-10.671 5.875 0 10.672 4.789 10.672 10.671 0 5.883-4.797 10.664-10.672 10.664zm-42.671 32c-17.641 0-32 14.358-32 31.999 0 17.648 14.359 31.999 32 31.999s32-14.351 32-31.999c0-17.641-14.359-31.999-32-31.999zm.001 42.663c-5.876 0-10.656-4.781-10.656-10.664s4.781-10.664 10.656-10.664c5.891 0 10.672 4.781 10.672 10.664s-4.781 10.664-10.672 10.664zm10.671 42.671c-17.641 0-32 14.352-32 32 0 17.641 14.359 32 32 32 17.64 0 31.999-14.359 31.999-32 0-17.649-14.359-32-31.999-32zm0 42.672c-5.891 0-10.672-4.781-10.672-10.672 0-5.883 4.781-10.673 10.672-10.673 5.875 0 10.671 4.79 10.671 10.673.001 5.89-4.796 10.672-10.671 10.672z" fill="#e2c00c"/></svg>
