<?xml version="1.0" encoding="iso-8859-1"?>
<!-- Generator: Adobe Illustrator 19.0.0, SVG Export Plug-In . SVG Version: 6.00 Build 0)  -->
<svg xmlns="http://www.w3.org/2000/svg" xmlns:xlink="http://www.w3.org/1999/xlink" version="1.1" id="Layer_1" x="0px" y="0px" viewBox="0 0 511.998 511.998" style="enable-background:new 0 0 511.998 511.998;" xml:space="preserve" width="512px" height="512px">
<g>
	<g>
		<path d="M493.887,5.139c-4.715-4.053-10.965-5.845-17.131-4.885L199.423,42.92c-10.411,1.6-18.091,10.539-18.091,21.077v64v21.333    v209.515c-17.877-10.837-39.893-17.515-64-17.515c-58.816,0-106.667,38.293-106.667,85.333c0,47.061,47.851,85.333,106.667,85.333    s106.667-38.272,106.667-85.333V167.635l234.667-36.096v141.973c-17.877-10.837-39.893-17.515-64-17.515    c-58.816,0-106.667,38.293-106.667,85.333c0,47.061,47.851,85.333,106.667,85.333c58.816,0,106.667-38.272,106.667-85.333V106.665    V21.331C501.332,15.102,498.623,9.192,493.887,5.139z M458.666,88.36l-234.667,36.117V82.302l234.667-36.096V88.36z" fill="#87342e"/>
	</g>
</g>
<g>
</g>
<g>
</g>
<g>
</g>
<g>
</g>
<g>
</g>
<g>
</g>
<g>
</g>
<g>
</g>
<g>
</g>
<g>
</g>
<g>
</g>
<g>
</g>
<g>
</g>
<g>
</g>
<g>
</g>
</svg>
