<?xml version="1.0" encoding="iso-8859-1"?>
<!-- Generator: Adobe Illustrator 19.0.0, SVG Export Plug-In . SVG Version: 6.00 Build 0)  -->
<svg xmlns="http://www.w3.org/2000/svg" xmlns:xlink="http://www.w3.org/1999/xlink" version="1.1" id="Layer_1" x="0px" y="0px" viewBox="0 0 512.321 512.321" style="enable-background:new 0 0 512.321 512.321;" xml:space="preserve" width="512px" height="512px">
<g>
	<g>
		<path d="M413.179,243.073c-18.773-18.773-40.064-33.216-59.968-40.704c-34.261-12.864-52.864-1.365-60.885,6.656    c-12.992,13.013-15.253,32.917-8.384,55.275c0.213,0.853,0.427,1.749,0.704,2.56c7.317,21.291,10.859,40.341,10.859,58.155    l-0.064,57.984c-1.856,0.427-4.949,0.917-10.048,1.408c-10.027,0.853-18.283-3.221-19.307-5.248V106.967    c0-25.344-1.792-52.096-23.296-75.819c-34.347-37.867-92.395-41.515-130.88-9.259c-4.395,1.984-21.312,1.984-34.688-0.021    c-6.101-0.832-12.352,0.917-17.088,4.949c-4.672,4.053-7.381,9.963-7.381,16.149v64c0,11.691,9.387,21.184,21.056,21.333    l44.693,0.576c6.037,0.043,11.029-2.091,15.083-5.973c6.848-6.635,14.272-9.387,19.819-7.424c3.328,1.195,5.419,4.053,5.888,8.064    c0,0.043,0.128,2.219,0.128,2.261v279.829c0,63.317,50.069,105.173,127.573,106.667c0.832,0.021,1.664,0.021,2.475,0.021    c39.851,0,82.219-18.368,111.125-48.32c23.915-24.747,36.16-55.04,34.496-85.333c-0.235-4.352,4.075-8.213,6.123-9.771    c2.112-1.408,4.096-3.029,5.952-4.885h0.021c-0.021-0.085,0.043-0.043,0.064-0.085C472.4,338.775,458.064,287.937,413.179,243.073    z M417.659,333.271c-0.021,0.021-0.064,0.043-0.107,0.064c-0.32,0.149-0.939,0.171-1.429,0.235    c-0.512,0.085-0.917,0.213-1.6,0.192c-0.555,0-1.344-0.149-2.005-0.213c-0.896-0.107-1.685-0.149-2.752-0.363    c-0.619-0.128-1.429-0.405-2.112-0.576c-1.344-0.341-2.624-0.64-4.181-1.173c-0.576-0.192-1.301-0.533-1.92-0.768    c-1.813-0.683-3.627-1.365-5.675-2.304c-0.512-0.235-1.109-0.597-1.643-0.853c-2.261-1.109-4.565-2.261-7.04-3.712    c-0.491-0.277-1.024-0.661-1.515-0.96c-2.624-1.579-5.269-3.243-8.085-5.227c-0.32-0.235-0.683-0.555-1.024-0.811    c-6.357-4.565-13.077-10.155-20.011-17.088c-15.936-15.936-27.989-34.475-32.256-49.579c-0.021-0.064-0.043-0.107-0.043-0.171    c0.021,0,0,0-0.021-0.043V249.9c0.021,0-0.021-0.021-0.021-0.043v-0.021l-0.021-0.021c0-0.043,0-0.085-0.021-0.085    c0-0.021-0.021-0.064-0.021-0.107c-0.021-0.021-0.021-0.021-0.021-0.043v-0.021v-0.064c0,0,0,0-0.021-0.064    c-0.341-1.045-1.067-1.813-1.536-2.773c-0.853-3.477-1.003-5.931-0.661-7.019c0.661-0.299,1.664-0.448,2.923-0.448    c9.024,0,32.277,8.149,58.176,34.048C412.475,302.679,419.003,328.748,417.659,333.271z" fill="#87342e"/>
	</g>
</g>
<g>
</g>
<g>
</g>
<g>
</g>
<g>
</g>
<g>
</g>
<g>
</g>
<g>
</g>
<g>
</g>
<g>
</g>
<g>
</g>
<g>
</g>
<g>
</g>
<g>
</g>
<g>
</g>
<g>
</g>
</svg>
