<?xml version="1.0" encoding="iso-8859-1"?>
<!-- Generator: Adobe Illustrator 19.0.0, SVG Export Plug-In . SVG Version: 6.00 Build 0)  -->
<svg xmlns="http://www.w3.org/2000/svg" xmlns:xlink="http://www.w3.org/1999/xlink" version="1.1" id="Layer_1" x="0px" y="0px" viewBox="0 0 498.341 498.341" style="enable-background:new 0 0 498.341 498.341;" xml:space="preserve" width="512px" height="512px">
<g>
	<g>
		<path d="M492.293,158.605c-30.763-52.48-87.019-105.707-151.125-142.955c-8.149-6.315-19.008-7.829-28.736-3.776    c-10.709,4.501-17.536,14.933-17.429,26.368l0.128,73.792c0.384,21.547,0.192,34.176-7.531,42.048    c-2.005,1.771-202.56,178.667-271.296,244.011c-10.347,9.813-16.128,23.083-16.299,37.312    c-0.192,14.293,5.291,27.755,15.424,37.888h0.021c10.261,10.283,23.701,15.424,37.163,15.424c12.715,0,25.472-4.608,35.605-13.931    c14.187-13.077,33.92-31.68,56.064-52.715c2.624,13.781,9.237,26.944,19.883,37.589c13.653,13.632,31.829,21.163,51.243,21.163    c19.392,0,37.568-7.531,51.221-21.163l84.352-84.352c28.245-28.245,28.245-74.197,0-102.464    c-9.109-9.109-20.587-14.891-32.747-17.92c20.693-20.011,34.197-33.109,34.795-33.685c11.2-11.328,27.285-16.853,52.395-16.469    h64.043c11.051,0.427,22.101-6.72,26.624-17.451C500.144,177.656,498.629,166.755,492.293,158.605z M320.816,303.011    c11.605,11.627,11.605,30.528,0,42.133l-84.352,84.352c-11.179,11.157-30.955,11.157-42.133,0    c-11.605-11.627-11.605-30.528,0-42.133l84.352-84.352c5.589-5.568,13.077-8.661,21.077-8.661    C307.738,294.349,315.226,297.443,320.816,303.011z" fill="#87342e"/>
	</g>
</g>
<g>
</g>
<g>
</g>
<g>
</g>
<g>
</g>
<g>
</g>
<g>
</g>
<g>
</g>
<g>
</g>
<g>
</g>
<g>
</g>
<g>
</g>
<g>
</g>
<g>
</g>
<g>
</g>
<g>
</g>
</svg>
