<?xml version="1.0" encoding="iso-8859-1"?>
<!-- Generator: Adobe Illustrator 19.0.0, SVG Export Plug-In . SVG Version: 6.00 Build 0)  -->
<svg xmlns="http://www.w3.org/2000/svg" xmlns:xlink="http://www.w3.org/1999/xlink" version="1.1" id="Layer_1" x="0px" y="0px" viewBox="0 0 480 480" style="enable-background:new 0 0 480 480;" xml:space="preserve" width="512px" height="512px">
<g id="XMLID_802_">
	<g>
		<g>
			<path d="M385,299.997V240c0-39.112-25.078-72.477-60-84.859V60h10c5.523,0,10-4.477,10-10s-4.477-10-10-10h-10V20h10     c5.523,0,10-4.477,10-10s-4.477-10-10-10h-80c-5.523,0-10,4.477-10,10s4.477,10,10,10h10v20h-10c-5.523,0-10,4.477-10,10     s4.477,10,10,10h10v95.141c-34.922,12.381-60,45.746-60,84.859v59.997c-25.144,18.866-40,48.382-40,80.003     c0,55.14,44.86,100,100,100h60c55.14,0,100-44.86,100-100C425,348.379,410.144,318.863,385,299.997z M265,270h-10     c-5.523,0-10,4.477-10,10s4.477,10,10,10h10v170c-44.112,0-80-35.888-80-80c0-26.752,13.294-51.624,35.563-66.53     c2.772-1.856,4.437-4.973,4.437-8.31V240c0-27.87,16.369-51.987,40-63.241V270z M305,460h-20V290h20V460z M305,270h-20v-99.288     c6.534-0.938,13.466-0.938,20,0V270z M305,150.552c-3.285-0.365-6.62-0.552-10-0.552s-6.715,0.187-10,0.552V60h20V150.552z      M305,40h-20V20h20V40z M325,460V290h10c5.523,0,10-4.477,10-10s-4.477-10-10-10h-10v-93.241c23.631,11.255,40,35.371,40,63.241     v65.16c0,3.337,1.665,6.454,4.437,8.31C391.706,328.376,405,353.248,405,380C405,424.112,369.112,460,325,460z" fill="#87342e"/>
			<path d="M105,410H95V10c0-5.523-4.477-10-10-10S75,4.477,75,10v400H65c-5.523,0-10,4.477-10,10s4.477,10,10,10h10v40     c0,5.523,4.477,10,10,10s10-4.477,10-10v-40h10c5.523,0,10-4.477,10-10S110.523,410,105,410z" fill="#87342e"/>
			<path d="M228.613,340.077c-4.595,3.063-5.837,9.272-2.773,13.867c2.963,4.445,4.018,9.778,2.971,15.017     c-1.048,5.238-4.073,9.755-8.518,12.719c-4.595,3.063-5.837,9.272-2.773,13.867c1.927,2.891,5.098,4.454,8.33,4.454     c1.906,0,3.833-0.544,5.538-1.681c8.89-5.926,14.94-14.96,17.035-25.437c2.096-10.477-0.015-21.143-5.941-30.033     C239.417,338.255,233.208,337.013,228.613,340.077z" fill="#87342e"/>
			<path d="M370.547,381.68c-4.445-2.963-7.47-7.48-8.518-12.719c-1.047-5.238,0.007-10.571,2.971-15.017     c3.063-4.595,1.822-10.804-2.773-13.867c-4.594-3.063-10.803-1.822-13.867,2.773c-5.927,8.89-8.037,19.556-5.941,30.033     c2.095,10.477,8.145,19.511,17.035,25.437c1.705,1.137,3.631,1.681,5.538,1.681c3.231,0,6.403-1.563,8.33-4.454     C376.384,390.952,375.142,384.743,370.547,381.68z" fill="#87342e"/>
		</g>
	</g>
</g>
<g>
</g>
<g>
</g>
<g>
</g>
<g>
</g>
<g>
</g>
<g>
</g>
<g>
</g>
<g>
</g>
<g>
</g>
<g>
</g>
<g>
</g>
<g>
</g>
<g>
</g>
<g>
</g>
<g>
</g>
</svg>
