<svg xmlns="http://www.w3.org/2000/svg" xmlns:xlink="http://www.w3.org/1999/xlink" width="171" height="60" viewBox="0 0 171 60">
    <style>
        a {
            cursor: pointer;
        }
    </style>

    <a xlink:href="/" target="_top">
        <g id="Logo" fill="none" fill-rule="evenodd">
            <g id="Logo-Header-Beta">

                <g id="FLASHES" fill="#BE1622">
                    <path xmlns="http://www.w3.org/2000/svg" id="path3688" d="m 236.141,190.623 c -3.078,2.197 -6.79,3.803 -10.517,4.44 -5.6,0.955 -11.38,0.756 -16.784,2.742 -3.764,1.383 -7.087,4.336 -9.697,7.326 3.118,-1.845 6.986,-2.022 10.499,-1.867 4.416,0.199 8.797,0.649 13.186,-0.131 6.38,-1.139 11.481,-6.396 13.313,-12.51 z" fill="#87342e"/>
                    <path xmlns="http://www.w3.org/2000/svg" id="path3690" d="m 237.843,186.535 c -0.734,0.321 -1.487,0.606 -2.252,0.838 -1.267,0.383 -2.527,0.285 -3.822,0.144 -1.383,-0.15 -2.751,-0.419 -4.122,-0.652 -1.362,-0.229 -2.733,-0.435 -4.113,-0.471 -5.321,-0.138 -10.272,1.23 -14.018,5.141 -2.13,2.225 -3.911,4.912 -5.144,7.736 5.722,-4.664 13.427,-3.959 20.26,-5.236 8.569,-1.595 13.211,-7.5 13.211,-7.5 z" fill="#87342e"/>

                    <path d="M51.502 18.994l-.545-.39 2.488-.962-.422-.596 5.555-.482.043.13-2.26.89.262.486-2.996.735.46.578-4.145.56-.057-.113 1.62-.836" id="flash4">
                        <animate attributeName="opacity" from="1" to="0" dur="1s" begin="overlay.mouseover" end="overlay.mouseout" repeatCount="indefinite" />
                        <animateMotion from="0,0" to="10,-6" dur="1s" begin="overlay.mouseover" end="overlay.mouseout" repeatCount="indefinite" />
                    </path>
                    <path d="M51.297 13.088l.456.367-3.898 2.74-.09-.094 1.39-1.893-.726.043 1.545-1.78-.4-.486 4.782-3.617.092.094-1.86 2.555.586-.002-1.88 2.076" id="flash3">
                        <animate attributeName="opacity" from="1" to="0" dur="1s" begin="overlay.mouseover" end="overlay.mouseout" repeatCount="indefinite" />
                        <animateMotion from="0,0" to="10,-10" dur="1s" begin="overlay.mouseover" end="overlay.mouseout" repeatCount="indefinite" />
                    </path>
                    <path d="M38.713 13.088l-.456.367 3.898 2.74.09-.094-1.39-1.893.726.043-1.545-1.78.4-.486-4.783-3.617-.09.094 1.86 2.555-.587-.002 1.88 2.076" id="flash2">
                        <animate attributeName="opacity" from="1" to="0" dur="1s" begin="overlay.mouseover" end="overlay.mouseout" repeatCount="indefinite" />
                        <animateMotion from="0,0" to="-10,-10" dur="1s" begin="overlay.mouseover" end="overlay.mouseout" repeatCount="indefinite" />
                    </path>
                    <path d="M38.51 18.994l.544-.39-2.488-.962.422-.596-5.555-.482-.043.13 2.263.89-.263.486 2.997.735-.46.578 4.145.56.057-.113-1.62-.836" id="flash1">
                        <animate attributeName="opacity" from="1" to="0" dur="1s" begin="overlay.mouseover" end="overlay.mouseout" repeatCount="indefinite" />
                        <animateMotion from="0,0" to="-10,-6" dur="1s" begin="overlay.mouseover" end="overlay.mouseout" repeatCount="indefinite" />
                    </path>
                </g>
            </g>
        </g>
        <path id="overlay" pointer-events="all" fill="none" d="M0 0h171v60H0z" />
    </a>
</svg>
